<svg xmlns="http://www.w3.org/2000/svg" width="19.664" height="21.849" viewBox="0 0 19.664 21.849">
  <path id="ic_assignment_24px" d="M20.479,3.185H15.913a3.264,3.264,0,0,0-6.161,0H5.185A2.191,2.191,0,0,0,3,5.37V20.664a2.191,2.191,0,0,0,2.185,2.185H20.479a2.191,2.191,0,0,0,2.185-2.185V5.37A2.191,2.191,0,0,0,20.479,3.185Zm-7.647,0A1.092,1.092,0,1,1,11.74,4.277,1.1,1.1,0,0,1,12.832,3.185Zm2.185,15.294H7.37V16.294h7.647Zm3.277-4.37H7.37V11.924H18.294Zm0-4.37H7.37V7.555H18.294Z" transform="translate(-3 -1)" fill="#95989a"/>
</svg>
