<svg xmlns="http://www.w3.org/2000/svg" width="25.705" height="19.863" viewBox="0 0 25.705 19.863">
  <path id="ic_import_contacts_24px" d="M24.368,5.084A13.792,13.792,0,0,0,20.279,4.5a10.866,10.866,0,0,0-6.426,1.753A10.866,10.866,0,0,0,7.426,4.5,10.866,10.866,0,0,0,1,6.253V23.37a.628.628,0,0,0,.584.584c.117,0,.175-.058.292-.058a14.261,14.261,0,0,1,5.55-1.285,10.867,10.867,0,0,1,6.426,1.753,14.074,14.074,0,0,1,6.426-1.753,11.892,11.892,0,0,1,5.55,1.227.527.527,0,0,0,.292.058.628.628,0,0,0,.584-.584V6.253A7.969,7.969,0,0,0,24.368,5.084Zm0,15.773a13.577,13.577,0,0,0-4.089-.584,14.074,14.074,0,0,0-6.426,1.753V8.589a14.074,14.074,0,0,1,6.426-1.753,13.577,13.577,0,0,1,4.089.584Z" transform="translate(-1 -4.5)" fill="#95989a"/>
</svg>
